<?xml version="1.0" standalone="no"?>
<!DOCTYPE svg PUBLIC "-//W3C//DTD SVG 20010904//EN"
 "http://www.w3.org/TR/2001/REC-SVG-20010904/DTD/svg10.dtd">
<svg version="1.0" xmlns="http://www.w3.org/2000/svg"
 width="500.000000pt" height="500.000000pt" viewBox="0 0 500.000000 500.000000"
 preserveAspectRatio="xMidYMid meet">
<metadata>
Created by potrace 1.14, written by Peter Selinger 2001-2017
</metadata>
<g transform="translate(0.000000,500.000000) scale(0.100000,-0.100000)"
fill="#000000" stroke="none">
<path d="M0 2500 l0 -2500 2500 0 2500 0 0 2500 0 2500 -2500 0 -2500 0 0
-2500z m1983 1869 c111 -31 218 -246 190 -382 -20 -94 -62 -166 -151 -257
l-83 -85 -23 28 -23 29 33 50 c34 51 54 104 54 148 0 19 -7 11 -31 -35 -63
-125 -245 -270 -424 -336 -42 -16 -45 -19 -17 -16 17 2 32 0 32 -3 0 -14 -59
-87 -102 -127 -45 -41 -97 -72 -167 -99 l-36 -14 45 5 c105 13 203 80 279 189
41 59 57 74 98 90 52 20 132 67 176 103 16 13 32 23 36 23 5 0 24 -24 44 -52
20 -29 66 -89 102 -133 36 -43 65 -82 64 -85 0 -3 -52 -30 -117 -60 -242 -114
-524 -334 -683 -533 -21 -26 -42 -47 -46 -46 -4 1 -38 70 -74 153 -58 133 -70
153 -100 168 -19 10 -45 18 -59 18 -25 -1 -25 -1 5 -17 39 -20 66 -44 60 -53
-10 -16 -116 -59 -172 -71 -181 -37 -309 76 -288 256 9 86 39 147 99 204 87
82 201 130 370 157 133 21 194 45 256 101 53 48 61 69 13 35 -35 -24 -149 -82
-163 -82 -5 0 5 21 24 48 18 26 61 101 94 167 77 150 164 261 282 358 168 138
294 187 403 156z m283 -989 c398 -102 635 -473 634 -993 -1 -572 -288 -960
-746 -1008 -474 -51 -829 239 -920 751 -30 170 -19 525 20 597 42 79 270 304
423 415 150 110 426 257 484 258 14 0 61 -9 105 -20z m219 -20 c3 -6 -1 -7 -9
-4 -18 7 -21 14 -7 14 6 0 13 -4 16 -10z m1185 -975 l0 -985 -230 0 -230 0 0
805 0 805 -195 0 -195 0 0 180 0 180 425 0 425 0 0 -985z m-737 340 c-3 -9 -8
-14 -10 -11 -3 3 -2 9 2 15 9 16 15 13 8 -4z m4 -47 c-3 -8 -6 -5 -6 6 -1 11
2 17 5 13 3 -3 4 -12 1 -19z m10 -50 c-3 -8 -6 -5 -6 6 -1 11 2 17 5 13 3 -3
4 -12 1 -19z m0 -80 c-3 -7 -5 -2 -5 12 0 14 2 19 5 13 2 -7 2 -19 0 -25z m10
-175 c-3 -10 -5 -4 -5 12 0 17 2 24 5 18 2 -7 2 -21 0 -30z m-10 -165 c-3 -7
-5 -2 -5 12 0 14 2 19 5 13 2 -7 2 -19 0 -25z m-10 -110 c-3 -8 -6 -5 -6 6 -1
11 2 17 5 13 3 -3 4 -12 1 -19z m-29 -153 c-3 -3 -9 2 -12 12 -6 14 -5 15 5 6
7 -7 10 -15 7 -18z"/>
<path d="M1942 3001 c-129 -44 -211 -165 -249 -366 -24 -123 -21 -394 4 -515
36 -165 100 -267 204 -325 50 -28 62 -30 154 -30 85 0 107 4 148 23 100 50
167 146 209 300 19 67 21 105 22 292 1 246 -11 318 -69 437 -83 169 -253 243
-423 184z m141 -38 c-7 -2 -21 -2 -30 0 -10 3 -4 5 12 5 17 0 24 -2 18 -5z
m54 -9 c-3 -3 -12 -4 -19 -1 -8 3 -5 6 6 6 11 1 17 -2 13 -5z m37 -16 c-5 -8
-1 -9 12 -4 14 5 16 4 8 -4 -6 -6 -19 -8 -28 -4 -14 5 -15 9 -4 15 18 12 20
11 12 -3z m52 -33 c9 -8 11 -15 6 -15 -5 0 -15 7 -22 15 -7 8 -9 15 -6 15 4 0
14 -7 22 -15z m74 -78 c0 -5 9 -20 20 -34 16 -20 18 -34 13 -66 -4 -27 -3 -38
4 -34 29 18 52 -123 48 -298 -3 -159 -3 -165 -12 -165 -5 0 -6 49 -3 109 3 60
2 107 -2 105 -4 -3 -8 15 -10 38 -3 32 -5 21 -12 -44 -5 -49 -11 -88 -15 -88
-6 0 -7 82 -2 185 2 38 4 45 11 30 6 -14 9 2 8 50 0 47 -2 62 -7 45 -7 -21 -9
-15 -16 32 -4 31 -4 61 -1 67 4 6 -2 18 -14 28 -11 10 -20 25 -20 35 0 20 -20
35 -21 16 0 -10 -2 -10 -6 0 -2 6 -10 9 -16 6 -9 -5 -9 -4 0 6 6 7 9 20 6 29
-3 9 6 3 21 -14 14 -16 25 -34 26 -38z m-6 -202 c-4 -8 -8 -15 -10 -15 -2 0
-4 7 -4 15 0 8 4 15 10 15 5 0 7 -7 4 -15z m63 -282 c-2 -21 -4 -6 -4 32 0 39
2 55 4 38 2 -18 2 -50 0 -70z m-20 -55 c-3 -8 -6 -5 -6 6 -1 11 2 17 5 13 3
-3 4 -12 1 -19z m8 -88 c-9 -41 -17 -33 -9 9 4 17 9 30 11 27 3 -2 2 -19 -2
-36z m33 -31 c-3 -8 -7 -3 -11 10 -4 17 -3 21 5 13 5 -5 8 -16 6 -23z m-27
-96 c-8 -15 -10 -15 -11 -2 0 17 10 32 18 25 2 -3 -1 -13 -7 -23z m-61 -143
c-12 -16 -24 -30 -26 -30 -7 0 5 20 24 43 24 27 25 20 2 -13z"/>
<path d="M2331 2454 c0 -11 3 -14 6 -6 3 7 2 16 -1 19 -3 4 -6 -2 -5 -13z"/>
</g>
</svg>
